<?xml version="1.0" encoding="UTF-8"?>
<svg id="_レイヤー_2" data-name="レイヤー 2" xmlns="http://www.w3.org/2000/svg" viewBox="0 0 1041.9 159.48">
  <defs>
    <style>
      .cls-1 {
        fill: #231815;
      }
    </style>
  </defs>
  <g id="_レイヤー_1-2" data-name="レイヤー 1">
    <g>
      <circle class="cls-1" cx="965.31" cy="79.74" r="76.59"/>
      <rect class="cls-1" x="216.98" y="0" width="51.94" height="159.48"/>
      <rect class="cls-1" x="522.47" y="0" width="51.94" height="159.48"/>
      <rect class="cls-1" x="683.15" y="0" width="51.94" height="159.48"/>
      <path class="cls-1" d="M0,0v159.48c44.04,0,79.74-35.7,79.74-79.74S44.04,0,0,0Z"/>
      <g>
        <path class="cls-1" d="M331.68,79.74V0c-22.02,0-39.87,17.85-39.87,39.87,0,22.02,17.85,39.87,39.87,39.87Z"/>
        <path class="cls-1" d="M331.68,79.74v79.74c22.02,0,39.87-17.85,39.87-39.87,0-22.02-17.85-39.87-39.87-39.87Z"/>
      </g>
      <polygon class="cls-1" points="758.39 0 758.39 32.08 796.78 50.55 796.78 159.48 841.1 159.48 841.1 50.55 879.49 32.08 879.49 32.08 879.49 0 758.39 0"/>
      <polygon class="cls-1" points="494.95 0 444.7 60.78 394.45 0 394.45 159.48 444.7 98.7 494.95 159.48 494.95 0"/>
      <polygon class="cls-1" points="136.78 0 79.48 159.48 194.09 159.48 136.78 0"/>
    </g>
  </g>
</svg>