<?xml version="1.0" encoding="UTF-8"?>
<svg id="_レイヤー_2" data-name="レイヤー 2" xmlns="http://www.w3.org/2000/svg" viewBox="0 0 899.02 232.79">
  <defs>
    <style>
      .cls-1 {
        fill: #231815;
      }
    </style>
  </defs>
  <g id="_レイヤー_1-2" data-name="レイヤー 1">
    <g>
      <g>
        <polygon class="cls-1" points="477.33 84.91 556.34 23.25 511.05 179.51 515.61 81.05 477.33 84.91"/>
        <polygon class="cls-1" points="550.12 76.85 674.89 32.51 640.86 76.85 550.12 76.85"/>
        <polygon class="cls-1" points="568.56 4.5 617.1 197.55 704.46 111.78 644.38 144.85 568.56 4.5"/>
        <polygon class="cls-1" points="614.52 7.38 625.97 32.11 663.26 21.99 614.52 7.38"/>
      </g>
      <g>
        <polygon class="cls-1" points="693.31 68.42 899.02 59.03 743.04 106.12 693.31 68.42"/>
        <polygon class="cls-1" points="722.02 147.86 860.22 140.58 757.21 176.85 722.02 147.86"/>
        <polygon class="cls-1" points="790.25 16.84 829.8 22.88 782.53 165.38 790.25 16.84"/>
      </g>
      <g>
        <polygon class="cls-1" points="0 83.6 79.01 21.95 33.72 178.2 38.28 79.75 0 83.6"/>
        <polygon class="cls-1" points="103.61 32.38 208.95 19.05 170.6 119.49 80.17 108.68 164.14 94.57 171.58 49.52 103.61 32.38"/>
        <polygon class="cls-1" points="126.26 33.95 158.34 33.95 85.21 232.79 126.26 33.95"/>
        <polygon class="cls-1" points="75.54 58.1 89.48 87.92 228.71 58.1 75.54 58.1"/>
      </g>
      <g>
        <path class="cls-1" d="M247.67,19.44c1.49,0,27.31,34.38,27.31,34.38l137.81-34.94-165.11.56Z"/>
        <polygon class="cls-1" points="275.87 5.85 310.14 0 295.6 70.43 275.87 5.85"/>
        <polygon class="cls-1" points="355.63 0 381.71 13.27 333.98 62.09 355.63 0"/>
        <path class="cls-1" d="M244.28,65.76s-64.68,159.37-64.4,158.02,92.63-158.02,92.63-158.02h-28.24Z"/>
        <polygon class="cls-1" points="244.28 65.76 313.32 58.08 259.28 205.96 241.23 168.81 258.29 174.75 282.36 84.58 244.28 65.76"/>
        <polygon class="cls-1" points="235.09 93.76 257.17 112.58 292.62 87.09 235.09 93.76"/>
        <polygon class="cls-1" points="228.19 125.39 251.59 142.72 285.9 115.57 228.19 125.39"/>
        <polygon class="cls-1" points="312.06 76.25 331.4 65.76 335.98 85.57 312.06 76.25"/>
        <polygon class="cls-1" points="374.06 58.08 345.59 91.96 395.9 69.07 374.06 58.08"/>
        <polygon class="cls-1" points="305.12 93.29 328.99 116.04 393.06 90.03 305.12 93.29"/>
        <polygon class="cls-1" points="280.87 125.37 303.01 151.7 398.33 121.49 280.87 125.37"/>
        <polygon class="cls-1" points="325.72 150.47 347.8 152.3 323.43 215.92 325.72 150.47"/>
        <polygon class="cls-1" points="298.86 157.77 305.36 174.49 324.59 164.33 298.86 157.77"/>
        <polygon class="cls-1" points="289.29 187.68 306.65 193.11 322.78 173.77 289.29 187.68"/>
        <polygon class="cls-1" points="366.5 163.32 372.23 144.85 344.94 163.55 366.5 163.32"/>
        <polygon class="cls-1" points="356.74 196.09 388.24 190.32 342.48 170.47 356.74 196.09"/>
        <polygon class="cls-1" points="281.39 186.83 350.77 66.91 413.55 209.45 340.01 116.04 281.39 186.83"/>
      </g>
    </g>
  </g>
</svg>